<?xml version="1.0" encoding="UTF-8"?>
<svg width="145.13px" height="147.69515px" viewBox="0 0 145.13 147.69515" version="1.1" xmlns="http://www.w3.org/2000/svg">
	<g stroke="none" stroke-width="1" fill="none" fill-rule="evenodd">
		<g transform="translate(-181.000000, -70.000000)" fill-rule="nonzero">
			<g transform="translate(181.000000, 70.000000)">
				<path d="M113.82,142.89 C113.72,142.58 113.58,142.29 113.43,142.02 C112.69,140.74 111.42,139.87 110.45,138.79 C109.14,137.34 107.82,135.88 106.51,134.43 C105.2,132.98 103.84,131.55 102.57,130.07 C101.3,128.59 99.96,127.16 98.65,125.71 C97.34,124.25 96.02,122.79 94.71,121.33 C93.4,119.87 92.08,118.41 90.77,116.95 C89.46,115.49 88.14,114.03 86.83,112.57 C85.52,111.11 84.2,109.65 82.89,108.19 C81.58,106.73 80.26,105.27 78.95,103.81 C77.64,102.35 76.32,100.89 75.01,99.43 C73.7,97.97 72.38,96.51 71.07,95.05 L63.64,88.44 C62.1,87.09 59.38,86.66 57.39,88.03 C57.37,88.05 54.76,90.4 51.09,94.21 C50.38,94.95 49.66,95.71 49.31,96.67 C48.93,97.71 48.13,95.44 48.25,96.54 C49.01,103.5 48.77,115.08 49.53,122.04 C49.64,123.01 49.71,124.11 49.06,124.85 C48.4,125.6 47.28,125.66 46.28,125.66 C41.59,125.68 36.9,125.7 32.22,125.73 C30.63,125.74 28.89,125.69 27.68,124.66 C26.22,123.41 26.1,121.22 26.11,119.29 C26.13,95.12 26.15,70.96 26.18,46.79 C26.18,44.51 26.06,41.93 24.34,40.43 C22.86,39.13 20.69,39.09 18.72,39.13 C14.11,39.22 9.49,39.34 4.88,39.51 C3.16,39.57 1.12,39.84 0.37,41.39 C0.05,42.04 0.05,42.79 0.05,43.51 C0.05,75.73 0.05,107.96 0.05,140.18 C0.05,142.08 0.11,144.15 1.31,145.63 C2.87,147.53 5.66,147.68 8.12,147.68 C12.84,147.68 17.56,147.68 22.28,147.68 C27,147.68 31.72,147.68 36.44,147.68 C41.16,147.68 45.88,147.68 50.6,147.68 C55.32,147.68 60.04,147.68 64.76,147.68 C69.48,147.68 74.2,147.68 78.92,147.68 C83.64,147.68 88.36,147.68 93.08,147.68 C97.8,147.68 102.52,147.68 107.24,147.68 C109.32,147.68 112.42,147.98 113.69,145.91 C114.18,145 114.14,143.84 113.82,142.89 Z" fill="#040489"/>
				<path d="M47.5,62.01 L47.5,2.48 C47.5,1.11 48.61,5.68434189e-14 49.98,5.68434189e-14 L140.22,5.68434189e-14 C142.93,5.68434189e-14 145.13,2.2 145.13,4.91 L145.13,121.37 C145.13,122.74 144.02,123.85 142.65,123.85 L127.73,123.82 C127.01,123.82 126.46,122.8 125.99,122.26 L80.72,71.16 C79.88,70.2 79.91,68.76 80.78,67.83 L125.19,22.46 C126.68,20.88 126.3,19.43 124.13,19.43 L96.54,19.62 C95.88,19.62 95.24,19.89 94.77,20.36 L52.92,62.58 C52.81,62.69 52.7,62.81 52.6,62.93 C50.55,65.17 47.5,64.17 47.5,62.01 Z" fill="#008419"/>
				<path d="M0,41.82 L0,141.16 C0,143.1 1.57,144.67 3.51,144.67 L110.39,144.67 C112.53,144.67 113.66,142.14 112.24,140.54 L62.69,85.01 C61.72,83.93 60.04,83.9 59.04,84.96 L47.66,97 C47.23,97.46 46.98,98.07 46.98,98.7 L46.98,123.42 C46.98,124.79 45.87,125.9 44.5,125.9 L25.95,125.9 C24.58,125.9 23.47,124.79 23.47,123.42 L23.47,41.67 C23.47,40.29 22.35,39.18 20.97,39.189933 L2.46,39.33 C1.1,39.35 0,40.45 0,41.82 Z" fill="#1C17E6"/>
				<path d="M47.5,57.68 L47.5,2.48 C47.5,1.11 48.61,2.84217094e-14 49.98,2.84217094e-14 L139.59,2.84217094e-14 C140.96,2.84217094e-14 142.07,1.11 142.07,2.48 L142.07,121.34 C142.07,122.71 140.96,123.82 139.59,123.82 L127.74,123.82 C127.02,123.82 126.34,123.51 125.87,122.97 L79.58,69.97 C78.74,69.01 78.77,67.57 79.64,66.64 L123.51,19.84 C125,18.26 123.87,15.66 121.7,15.66 L95.82,15.66 C95.16,15.66 94.52,15.93 94.05,16.4 L51.74,59.41 C50.19,61 47.5,59.89 47.5,57.68 Z" fill="#00DE43"/>
			</g>
		</g>
	</g>
</svg>
