<?xml version="1.0" encoding="UTF-8"?>
<svg width="142.07px" height="144.67px" viewBox="0 0 142.07 144.67" version="1.1" xmlns="http://www.w3.org/2000/svg">
	<g stroke="none" stroke-width="1" fill="none" fill-rule="evenodd">
		<g transform="translate(-44.000000, -43.000000)" fill-rule="nonzero">
			<g transform="translate(44.000000, 43.000000)">
				<path d="M0,41.82 L0,141.16 C0,143.1 1.57,144.67 3.51,144.67 L110.39,144.67 C112.53,144.67 113.66,142.14 112.24,140.54 L62.69,85.01 C61.72,83.93 60.04,83.9 59.04,84.96 L47.66,97 C47.23,97.46 46.98,98.07 46.98,98.7 L46.98,123.42 C46.98,124.79 45.87,125.9 44.5,125.9 L25.95,125.9 C24.58,125.9 23.47,124.79 23.47,123.42 L23.47,41.67 C23.47,40.29 22.35,39.18 20.97,39.189933 L2.46,39.33 C1.1,39.35 0,40.45 0,41.82 Z" fill="#2965FF"/>
				<path d="M47.5,57.68 L47.5,2.48 C47.5,1.11 48.61,0 49.98,0 L139.59,0 C140.96,0 142.07,1.11 142.07,2.48 L142.07,121.34 C142.07,122.71 140.96,123.82 139.59,123.82 L127.74,123.82 C127.02,123.82 126.34,123.51 125.87,122.97 L79.58,69.97 C78.74,69.01 78.77,67.57 79.64,66.64 L123.51,19.84 C125,18.26 123.87,15.66 121.7,15.66 L95.82,15.66 C95.16,15.66 94.52,15.93 94.05,16.4 L51.74,59.41 C50.19,61 47.5,59.89 47.5,57.68 Z" fill="#2BFF6B"/>
			</g>
		</g>
	</g>
</svg>
